<svg width="140" height="34" viewBox="0 0 140 34" fill="none" xmlns="http://www.w3.org/2000/svg">
<g clip-path="url(#clip0_1632_2628)">
<path d="M13.44 16.5642H9.82456V32.9122H3.10456V16.5642H0.66807V10.9838H3.10456V10.355C3.10456 7.65656 3.87743 5.61305 5.42316 4.22451C6.96889 2.80977 9.23509 2.1024 12.2218 2.1024C12.7195 2.1024 13.0863 2.1155 13.3221 2.1417V7.83995C12.0384 7.76135 11.1345 7.94474 10.6105 8.39012C10.0866 8.8355 9.82456 9.63457 9.82456 10.7873V10.9838H13.44V16.5642ZM19.9773 8.70451C18.7984 8.70451 17.829 8.36392 17.0693 7.68276C16.3357 6.97539 15.9689 6.11083 15.9689 5.08907C15.9689 4.04112 16.3357 3.17656 17.0693 2.49539C17.829 1.78802 18.7984 1.43433 19.9773 1.43433C21.1301 1.43433 22.0732 1.78802 22.8068 2.49539C23.5666 3.17656 23.9464 4.04112 23.9464 5.08907C23.9464 6.11083 23.5666 6.97539 22.8068 7.68276C22.0732 8.36392 21.1301 8.70451 19.9773 8.70451ZM23.3177 10.9838V32.9122H16.5977V10.9838H23.3177ZM41.549 10.748C44.1165 10.748 46.16 11.5864 47.6795 13.2631C49.2253 14.9136 49.9981 17.1929 49.9981 20.101V32.9122H43.3174V21.0049C43.3174 19.5377 42.9375 18.3981 42.1778 17.5859C41.418 16.7737 40.3962 16.3677 39.1125 16.3677C37.8288 16.3677 36.807 16.7737 36.0472 17.5859C35.2875 18.3981 34.9076 19.5377 34.9076 21.0049V32.9122H28.1876V10.9838H34.9076V13.8919C35.5888 12.9225 36.5057 12.1628 37.6585 11.6126C38.8112 11.0362 40.1081 10.748 41.549 10.748ZM65.6714 16.5642H62.0559V32.9122H55.3359V16.5642H52.8994V10.9838H55.3359V10.355C55.3359 7.65656 56.1088 5.61305 57.6545 4.22451C59.2003 2.80977 61.4665 2.1024 64.4531 2.1024C64.9509 2.1024 65.3177 2.1155 65.5535 2.1417V7.83995C64.2697 7.76135 63.3659 7.94474 62.8419 8.39012C62.3179 8.8355 62.0559 9.63457 62.0559 10.7873V10.9838H65.6714V16.5642ZM75.549 3.83153V32.9122H68.829V3.83153H75.549Z" fill="black"/>
<path d="M139.528 10.9838L133.594 32.9122H126.167L122.709 18.6863L119.132 32.9122H111.744L105.771 10.9838H112.491L115.596 26.6638L119.29 10.9838H126.403L130.136 26.5852L133.201 10.9838H139.528Z" fill="black"/>
<g clip-path="url(#clip1_1632_2628)">
<path d="M87.3652 29.8863C102.897 29.8863 102.897 19.5318 101.603 15.6488C106.78 24.709 96.4255 33.7693 87.3652 29.8863Z" stroke="#A798D9" stroke-width="1.55318" stroke-linecap="round"/>
<ellipse cx="90.8586" cy="19" rx="11.3994" ry="9.96644" transform="rotate(-40.9881 90.8586 19)" fill="#DFD3F5" stroke="#060612" stroke-width="1.41655"/>
<path d="M98.1663 10.1449C101.852 12.4484 103.925 17.0093 103.925 19.3127C103.925 24.4013 99.318 30.8301 91.9469 31.2908C90.4755 31.3828 86.9253 31.2447 83.2397 27.5592" stroke="#060612" stroke-width="1.13324" stroke-linecap="round"/>
<path d="M91.5546 29.5416L93.3296 31.152M94.4352 28.8023L96.0938 30.2306M96.923 27.5584L98.3972 28.8485M98.3972 25.163L99.549 26.3147L100.701 27.4664" stroke="#060612" stroke-width="0.839437"/>
<path d="M101.898 17.608L103.925 19.6348M100.839 20.7408L103.142 22.5835" stroke="#060612" stroke-width="0.839437"/>
<path d="M99.7783 23.3204L102.082 25.6239" stroke="#060612" stroke-width="0.839437"/>
<path d="M83.1934 17.7921C84.299 13.738 89.1824 10.8819 92.868 11.3424" stroke="#060612" stroke-width="0.839437" stroke-linecap="round"/>
<path d="M98.396 20.5565C97.2903 24.6106 92.407 27.4668 88.7214 27.0062" stroke="#060612" stroke-width="0.839437" stroke-linecap="round"/>
</g>
</g>
<defs>
<clipPath id="clip0_1632_2628">
<rect width="140" height="34" fill="white"/>
</clipPath>
<clipPath id="clip1_1632_2628">
<rect width="28" height="27" fill="white" transform="translate(78 5)"/>
</clipPath>
</defs>
</svg>
